<svg xmlns="http://www.w3.org/2000/svg" xmlns:xlink="http://www.w3.org/1999/xlink" width="2341pt" height="815pt" viewBox="0.00 0.00 2341.03 815.06">
<g id="graph0" class="graph" transform="scale(1 1) rotate(0) translate(4 811.06)">
<title>G</title>
<polygon fill="white" stroke="none" points="-4,4 -4,-811.06 2337.03,-811.06 2337.03,4 -4,4"/>
<!-- 1068602508 -->
<g id="node1" class="node">
<title>1068602508</title>
<ellipse fill="none" stroke="black" cx="490.93" cy="-753.88" rx="314.34" ry="53.17"/>
<text text-anchor="middle" x="490.93" y="-774.88" font-family="Times,serif" font-size="14.00">SensoryNeuron</text>
<text text-anchor="middle" x="490.93" y="-758.08" font-family="Times,serif" font-size="14.00">ID: 1068602508</text>
<text text-anchor="middle" x="490.93" y="-741.28" font-family="Times,serif" font-size="14.00">Activation: 0.00</text>
<text text-anchor="middle" x="490.93" y="-724.48" font-family="Times,serif" font-size="14.00">Sense: com.michibaum.evolutionsimulation.brain.HearingSense@343727b5</text>
</g>
<!-- 1568977032 -->
<g id="node5" class="node">
<title>1568977032</title>
<ellipse fill="none" stroke="black" cx="2049.93" cy="-335.83" rx="76.48" ry="41.3"/>
<text text-anchor="middle" x="2049.93" y="-348.43" font-family="Times,serif" font-size="14.00">Interneuron</text>
<text text-anchor="middle" x="2049.93" y="-331.63" font-family="Times,serif" font-size="14.00">ID: 1568977032</text>
<text text-anchor="middle" x="2049.93" y="-314.83" font-family="Times,serif" font-size="14.00">Activation: 0.46</text>
</g>
<!-- 1068602508&#45;&gt;1568977032 -->
<g id="edge6" class="edge">
<title>1068602508-&gt;1568977032</title>
<path fill="none" stroke="black" d="M710.68,-715.5C745.51,-710.15 781.16,-705.01 814.93,-700.71 899.51,-689.93 921.92,-697.27 1005.93,-682.71 1035.75,-677.54 1042.1,-671.06 1071.93,-665.91 1114.6,-658.55 1234.93,-678.13 1265.93,-647.91 1303.55,-611.23 1241.66,-566.62 1279.83,-530.52 1303.3,-508.33 1539.01,-521.84 1569.93,-512.52 1640.2,-491.33 1643.13,-452.6 1712.93,-429.93 1786.03,-406.19 1812.03,-436.28 1884.93,-411.93 1898.7,-407.33 1899.88,-401.48 1912.93,-395.13 1933.04,-385.34 1939.27,-385.7 1959.93,-377.13 1967.02,-374.19 1974.39,-371.04 1981.73,-367.84"/>
<polygon fill="black" stroke="black" points="1982.9,-371.15 1990.65,-363.93 1980.09,-364.74 1982.9,-371.15"/>
<text text-anchor="middle" x="1316.38" y="-534.72" font-family="Times,serif" font-size="14.00">Weight: 0.19</text>
</g>
<!-- 1774238438 -->
<g id="node6" class="node">
<title>1774238438</title>
<ellipse fill="none" stroke="black" cx="1061.93" cy="-606.61" rx="76.48" ry="41.3"/>
<text text-anchor="middle" x="1061.93" y="-619.21" font-family="Times,serif" font-size="14.00">Interneuron</text>
<text text-anchor="middle" x="1061.93" y="-602.41" font-family="Times,serif" font-size="14.00">ID: 1774238438</text>
<text text-anchor="middle" x="1061.93" y="-585.61" font-family="Times,serif" font-size="14.00">Activation: 0.50</text>
</g>
<!-- 1068602508&#45;&gt;1774238438 -->
<g id="edge12" class="edge">
<title>1068602508-&gt;1774238438</title>
<path fill="none" stroke="black" d="M715.73,-716.39C807.18,-701.24 893.95,-686.32 903.93,-682.71 917.9,-677.65 919.62,-672.71 932.83,-665.91 936.09,-664.24 964.2,-651.53 993.36,-638.4"/>
<polygon fill="black" stroke="black" points="994.62,-641.67 1002.3,-634.38 991.74,-635.29 994.62,-641.67"/>
<text text-anchor="middle" x="969.38" y="-670.11" font-family="Times,serif" font-size="14.00">Weight: 0.39</text>
</g>
<!-- 571435580 -->
<g id="node7" class="node">
<title>571435580</title>
<ellipse fill="none" stroke="black" cx="516.93" cy="-606.61" rx="75.65" ry="41.3"/>
<text text-anchor="middle" x="516.93" y="-619.21" font-family="Times,serif" font-size="14.00">Interneuron</text>
<text text-anchor="middle" x="516.93" y="-602.41" font-family="Times,serif" font-size="14.00">ID: 571435580</text>
<text text-anchor="middle" x="516.93" y="-585.61" font-family="Times,serif" font-size="14.00">Activation: 0.50</text>
</g>
<!-- 1068602508&#45;&gt;571435580 -->
<g id="edge13" class="edge">
<title>1068602508-&gt;571435580</title>
<path fill="none" stroke="black" d="M500.32,-700.44C502.73,-686.98 505.32,-672.51 507.72,-659.1"/>
<polygon fill="black" stroke="black" points="511.1,-660.08 509.41,-649.62 504.21,-658.84 511.1,-660.08"/>
<text text-anchor="middle" x="545.14" y="-670.11" font-family="Times,serif" font-size="14.00">Weight: -0.49</text>
</g>
<!-- 1588609461 -->
<g id="node8" class="node">
<title>1588609461</title>
<ellipse fill="none" stroke="black" cx="1264.93" cy="-471.22" rx="76.48" ry="41.3"/>
<text text-anchor="middle" x="1264.93" y="-483.82" font-family="Times,serif" font-size="14.00">Interneuron</text>
<text text-anchor="middle" x="1264.93" y="-467.02" font-family="Times,serif" font-size="14.00">ID: 1588609461</text>
<text text-anchor="middle" x="1264.93" y="-450.22" font-family="Times,serif" font-size="14.00">Activation: 0.52</text>
</g>
<!-- 1068602508&#45;&gt;1588609461 -->
<g id="edge15" class="edge">
<title>1068602508-&gt;1588609461</title>
<path fill="none" stroke="black" d="M656.57,-708.33C687.3,-699.92 719.11,-691.12 748.93,-682.71 801.96,-667.74 827.49,-685.34 867.93,-647.91 896.73,-621.25 868.14,-589.34 899.17,-565.32 928.47,-542.64 1028.89,-555.9 1064.93,-547.32 1078.07,-544.19 1141.05,-520.29 1192.87,-500.29"/>
<polygon fill="black" stroke="black" points="1193.93,-503.63 1201.99,-496.76 1191.4,-497.1 1193.93,-503.63"/>
<text text-anchor="middle" x="938.05" y="-602.41" font-family="Times,serif" font-size="14.00">Weight: -0.22</text>
</g>
<!-- 642296347 -->
<g id="node9" class="node">
<title>642296347</title>
<ellipse fill="none" stroke="black" cx="1531.93" cy="-335.83" rx="75.65" ry="41.3"/>
<text text-anchor="middle" x="1531.93" y="-348.43" font-family="Times,serif" font-size="14.00">Interneuron</text>
<text text-anchor="middle" x="1531.93" y="-331.63" font-family="Times,serif" font-size="14.00">ID: 642296347</text>
<text text-anchor="middle" x="1531.93" y="-314.83" font-family="Times,serif" font-size="14.00">Activation: 0.51</text>
</g>
<!-- 1068602508&#45;&gt;642296347 -->
<g id="edge22" class="edge">
<title>1068602508-&gt;642296347</title>
<path fill="none" stroke="black" d="M684.41,-711.56C697.86,-703.56 710.28,-694.04 720.93,-682.71 757.66,-643.62 708.28,-600.31 748.93,-565.32 784.77,-534.48 916.78,-564.23 960.93,-547.32 972.5,-542.89 972.37,-536.58 983.17,-530.52 1002.24,-519.83 1009.14,-521.78 1028.93,-512.52 1098.22,-480.1 1106.43,-451.13 1179.93,-429.93 1242.82,-411.79 1416.09,-442.57 1473.93,-411.93 1485.87,-405.6 1496.12,-395.62 1504.52,-384.97"/>
<polygon fill="black" stroke="black" points="1507.16,-387.3 1510.26,-377.16 1501.52,-383.15 1507.16,-387.3"/>
<text text-anchor="middle" x="1022.05" y="-534.72" font-family="Times,serif" font-size="14.00">Weight: -0.50</text>
</g>
<!-- 1244869566 -->
<g id="node10" class="node">
<title>1244869566</title>
<ellipse fill="none" stroke="black" cx="1254.93" cy="-335.83" rx="76.48" ry="41.3"/>
<text text-anchor="middle" x="1254.93" y="-348.43" font-family="Times,serif" font-size="14.00">Interneuron</text>
<text text-anchor="middle" x="1254.93" y="-331.63" font-family="Times,serif" font-size="14.00">ID: 1244869566</text>
<text text-anchor="middle" x="1254.93" y="-314.83" font-family="Times,serif" font-size="14.00">Activation: 0.37</text>
</g>
<!-- 1068602508&#45;&gt;1244869566 -->
<g id="edge26" class="edge">
<title>1068602508-&gt;1244869566</title>
<path fill="none" stroke="black" d="M393.46,-703.02C384.12,-696.7 375.1,-689.9 366.93,-682.71 313.39,-635.55 274.92,-588.97 315.83,-530.52 390.73,-423.53 467.53,-469.7 591.93,-429.93 647.27,-412.24 660.55,-404.22 717.93,-395.13 895.01,-367.09 944.18,-407.17 1120.93,-377.13 1140.64,-373.78 1161.53,-368.42 1180.8,-362.68"/>
<polygon fill="black" stroke="black" points="1181.64,-366.09 1190.18,-359.82 1179.59,-359.39 1181.64,-366.09"/>
<text text-anchor="middle" x="352.38" y="-534.72" font-family="Times,serif" font-size="14.00">Weight: 0.18</text>
</g>
<!-- 330624590 -->
<g id="node11" class="node">
<title>330624590</title>
<ellipse fill="none" stroke="black" cx="1035.93" cy="-335.83" rx="75.65" ry="41.3"/>
<text text-anchor="middle" x="1035.93" y="-348.43" font-family="Times,serif" font-size="14.00">Interneuron</text>
<text text-anchor="middle" x="1035.93" y="-331.63" font-family="Times,serif" font-size="14.00">ID: 330624590</text>
<text text-anchor="middle" x="1035.93" y="-314.83" font-family="Times,serif" font-size="14.00">Activation: 0.56</text>
</g>
<!-- 1068602508&#45;&gt;330624590 -->
<g id="edge32" class="edge">
<title>1068602508-&gt;330624590</title>
<path fill="none" stroke="black" d="M328.86,-707.91C314.98,-700.69 301.75,-692.34 289.93,-682.71 230.5,-634.31 168.87,-595.92 208.83,-530.52 277.61,-417.97 345.56,-429.42 472.93,-395.13 546.85,-375.23 740.91,-386.07 816.93,-377.13 863,-371.71 914,-362.52 955.19,-354.28"/>
<polygon fill="black" stroke="black" points="955.66,-357.75 964.77,-352.34 954.28,-350.89 955.66,-357.75"/>
<text text-anchor="middle" x="245.38" y="-534.72" font-family="Times,serif" font-size="14.00">Weight: 0.31</text>
</g>
<!-- 1331013732 -->
<g id="node12" class="node">
<title>1331013732</title>
<ellipse fill="none" stroke="black" cx="676.93" cy="-471.22" rx="76.48" ry="41.3"/>
<text text-anchor="middle" x="676.93" y="-483.82" font-family="Times,serif" font-size="14.00">Interneuron</text>
<text text-anchor="middle" x="676.93" y="-467.02" font-family="Times,serif" font-size="14.00">ID: 1331013732</text>
<text text-anchor="middle" x="676.93" y="-450.22" font-family="Times,serif" font-size="14.00">Activation: 0.55</text>
</g>
<!-- 1068602508&#45;&gt;1331013732 -->
<g id="edge36" class="edge">
<title>1068602508-&gt;1331013732</title>
<path fill="none" stroke="black" d="M404.26,-702.46C385.95,-687.41 369.08,-669.15 358.83,-647.91 342.88,-614.85 337.71,-595.34 358.83,-565.32 372.78,-545.5 506.14,-511.45 595.7,-490.48"/>
<polygon fill="black" stroke="black" points="596.24,-493.95 605.19,-488.27 594.65,-487.13 596.24,-493.95"/>
<text text-anchor="middle" x="395.38" y="-602.41" font-family="Times,serif" font-size="14.00">Weight: 0.26</text>
</g>
<!-- 741268455 -->
<g id="node13" class="node">
<title>741268455</title>
<ellipse fill="none" stroke="black" cx="943.93" cy="-471.22" rx="75.65" ry="41.3"/>
<text text-anchor="middle" x="943.93" y="-483.82" font-family="Times,serif" font-size="14.00">Interneuron</text>
<text text-anchor="middle" x="943.93" y="-467.02" font-family="Times,serif" font-size="14.00">ID: 741268455</text>
<text text-anchor="middle" x="943.93" y="-450.22" font-family="Times,serif" font-size="14.00">Activation: 0.45</text>
</g>
<!-- 1068602508&#45;&gt;741268455 -->
<g id="edge41" class="edge">
<title>1068602508-&gt;741268455</title>
<path fill="none" stroke="black" d="M568.79,-702.27C575.7,-696.14 582.23,-689.59 587.93,-682.71 624.73,-638.32 596.53,-599.23 643.17,-565.32 694.54,-527.97 723.96,-565.1 784.93,-547.32 818.36,-537.57 853.56,-521.6 882.32,-506.89"/>
<polygon fill="black" stroke="black" points="883.61,-510.17 890.87,-502.45 880.38,-503.96 883.61,-510.17"/>
<text text-anchor="middle" x="682.05" y="-602.41" font-family="Times,serif" font-size="14.00">Weight: -0.18</text>
</g>
<!-- 1529869535 -->
<g id="node15" class="node">
<title>1529869535</title>
<ellipse fill="none" stroke="black" cx="331.93" cy="-53.17" rx="331.93" ry="53.17"/>
<text text-anchor="middle" x="331.93" y="-74.17" font-family="Times,serif" font-size="14.00">MotorNeuron</text>
<text text-anchor="middle" x="331.93" y="-57.37" font-family="Times,serif" font-size="14.00">ID: 1529869535</text>
<text text-anchor="middle" x="331.93" y="-40.57" font-family="Times,serif" font-size="14.00">Activation: 0.00</text>
<text text-anchor="middle" x="331.93" y="-23.77" font-family="Times,serif" font-size="14.00">Action: com.michibaum.evolutionsimulation.brain.MovementAction@7348e75e</text>
</g>
<!-- 1068602508&#45;&gt;1529869535 -->
<g id="edge63" class="edge">
<title>1068602508-&gt;1529869535</title>
<path fill="none" stroke="black" d="M218.46,-727.08C176.62,-716.72 135.04,-702.41 97.93,-682.71 56.82,-660.88 24.93,-654.16 24.93,-607.61 24.93,-607.61 24.93,-607.61 24.93,-199.44 24.93,-151.54 55.85,-119.41 98.06,-97.87"/>
<polygon fill="black" stroke="black" points="99.55,-101.03 107.05,-93.55 96.52,-94.73 99.55,-101.03"/>
<text text-anchor="middle" x="61.48" y="-399.33" font-family="Times,serif" font-size="14.00">Weight: 0.25</text>
</g>
<!-- 601879107 -->
<g id="node16" class="node">
<title>601879107</title>
<ellipse fill="none" stroke="black" cx="1012.93" cy="-53.17" rx="331.37" ry="53.17"/>
<text text-anchor="middle" x="1012.93" y="-74.17" font-family="Times,serif" font-size="14.00">MotorNeuron</text>
<text text-anchor="middle" x="1012.93" y="-57.37" font-family="Times,serif" font-size="14.00">ID: 601879107</text>
<text text-anchor="middle" x="1012.93" y="-40.57" font-family="Times,serif" font-size="14.00">Activation: 1.00</text>
<text text-anchor="middle" x="1012.93" y="-23.77" font-family="Times,serif" font-size="14.00">Action: com.michibaum.evolutionsimulation.brain.MovementAction@27e3dc9a</text>
</g>
<!-- 1068602508&#45;&gt;601879107 -->
<g id="edge74" class="edge">
<title>1068602508-&gt;601879107</title>
<path fill="none" stroke="black" d="M273.85,-715.24C241.15,-699.79 211.77,-678.15 191.93,-647.91 130.28,-553.94 135.5,-496.12 184.83,-395.13 190.55,-383.44 199.28,-386.86 207.93,-377.13 236.44,-345.06 229.15,-326.37 257.93,-294.54 325.07,-220.29 350.6,-208.08 437.93,-159.15 531.32,-106.82 566.89,-120.97 672.93,-106.35 703.49,-102.13 735.56,-97.5 767.29,-92.78"/>
<polygon fill="black" stroke="black" points="767.63,-96.27 777,-91.33 766.59,-89.34 767.63,-96.27"/>
<text text-anchor="middle" x="221.38" y="-399.33" font-family="Times,serif" font-size="14.00">Weight: 0.24</text>
</g>
<!-- 2084116799 -->
<g id="node2" class="node">
<title>2084116799</title>
<ellipse fill="none" stroke="black" cx="1763.93" cy="-753.88" rx="305.54" ry="53.17"/>
<text text-anchor="middle" x="1763.93" y="-774.88" font-family="Times,serif" font-size="14.00">SensoryNeuron</text>
<text text-anchor="middle" x="1763.93" y="-758.08" font-family="Times,serif" font-size="14.00">ID: 2084116799</text>
<text text-anchor="middle" x="1763.93" y="-741.28" font-family="Times,serif" font-size="14.00">Activation: 0.00</text>
<text text-anchor="middle" x="1763.93" y="-724.48" font-family="Times,serif" font-size="14.00">Sense: com.michibaum.evolutionsimulation.brain.TouchSense@18dafd3b</text>
</g>
<!-- 1847745588 -->
<g id="node4" class="node">
<title>1847745588</title>
<ellipse fill="none" stroke="black" cx="1891.93" cy="-200.44" rx="76.48" ry="41.3"/>
<text text-anchor="middle" x="1891.93" y="-213.04" font-family="Times,serif" font-size="14.00">Interneuron</text>
<text text-anchor="middle" x="1891.93" y="-196.24" font-family="Times,serif" font-size="14.00">ID: 1847745588</text>
<text text-anchor="middle" x="1891.93" y="-179.44" font-family="Times,serif" font-size="14.00">Activation: 0.43</text>
</g>
<!-- 2084116799&#45;&gt;1847745588 -->
<g id="edge1" class="edge">
<title>2084116799-&gt;1847745588</title>
<path fill="none" stroke="black" d="M1964.64,-713.47C2060.2,-688.75 2153.93,-652.95 2153.93,-607.61 2153.93,-607.61 2153.93,-607.61 2153.93,-334.83 2153.93,-254.44 2054.76,-222.48 1978.44,-209.79"/>
<polygon fill="black" stroke="black" points="1979.28,-206.37 1968.86,-208.28 1978.19,-213.29 1979.28,-206.37"/>
<text text-anchor="middle" x="2192.81" y="-467.02" font-family="Times,serif" font-size="14.00">Weight: -0.37</text>
</g>
<!-- 2084116799&#45;&gt;1568977032 -->
<g id="edge7" class="edge">
<title>2084116799-&gt;1568977032</title>
<path fill="none" stroke="black" d="M1812.56,-701.03C1817.86,-694.95 1823.08,-688.76 1827.93,-682.71 1907.57,-583.34 1984.07,-454.42 2023.09,-385.44"/>
<polygon fill="black" stroke="black" points="2025.97,-387.46 2027.83,-377.03 2019.88,-384.03 2025.97,-387.46"/>
<text text-anchor="middle" x="1972.05" y="-534.72" font-family="Times,serif" font-size="14.00">Weight: 0.10</text>
</g>
<!-- 2084116799&#45;&gt;1774238438 -->
<g id="edge10" class="edge">
<title>2084116799-&gt;1774238438</title>
<path fill="none" stroke="black" d="M1544.31,-716.54C1376.68,-688.59 1171.2,-653.77 1151.93,-647.91 1144.16,-645.54 1136.18,-642.67 1128.33,-639.56"/>
<polygon fill="black" stroke="black" points="1129.73,-636.35 1119.15,-635.78 1127.06,-642.82 1129.73,-636.35"/>
<text text-anchor="middle" x="1369.61" y="-670.11" font-family="Times,serif" font-size="14.00">Weight: -0.19</text>
</g>
<!-- 2084116799&#45;&gt;571435580 -->
<g id="edge14" class="edge">
<title>2084116799-&gt;571435580</title>
<path fill="none" stroke="black" d="M1556.47,-714.44C1520.71,-708.98 1483.83,-704.09 1448.93,-700.71 1173.62,-674.05 1102.24,-708.38 826.83,-682.71 728.31,-673.53 701.78,-676.11 606.93,-647.91 598.94,-645.53 590.74,-642.61 582.69,-639.42"/>
<polygon fill="black" stroke="black" points="584.21,-636.26 573.63,-635.69 581.54,-642.73 584.21,-636.26"/>
<text text-anchor="middle" x="863.38" y="-670.11" font-family="Times,serif" font-size="14.00">Weight: 0.18</text>
</g>
<!-- 2084116799&#45;&gt;1588609461 -->
<g id="edge16" class="edge">
<title>2084116799-&gt;1588609461</title>
<path fill="none" stroke="black" d="M1700.74,-701.51C1680.66,-684.75 1658.55,-665.84 1638.83,-647.91 1600.12,-612.71 1602.26,-587.63 1554.93,-565.32 1485.01,-532.35 1454.88,-572.89 1381.93,-547.32 1378.35,-546.06 1350.04,-527.91 1322.17,-509.77"/>
<polygon fill="black" stroke="black" points="1324.33,-507 1314.04,-504.47 1320.51,-512.87 1324.33,-507"/>
<text text-anchor="middle" x="1675.38" y="-602.41" font-family="Times,serif" font-size="14.00">Weight: 0.43</text>
</g>
<!-- 2084116799&#45;&gt;642296347 -->
<g id="edge23" class="edge">
<title>2084116799-&gt;642296347</title>
<path fill="none" stroke="black" d="M1799.42,-700.83C1825.53,-656.09 1853.92,-589.63 1837.93,-530.52 1819.74,-463.27 1814.52,-437.12 1758.93,-395.13 1718.68,-364.72 1664.16,-350.09 1618.65,-343.09"/>
<polygon fill="black" stroke="black" points="1619.18,-339.63 1608.78,-341.68 1618.19,-346.56 1619.18,-339.63"/>
<text text-anchor="middle" x="1880.12" y="-534.72" font-family="Times,serif" font-size="14.00">Weight: -0.18</text>
</g>
<!-- 2084116799&#45;&gt;1244869566 -->
<g id="edge27" class="edge">
<title>2084116799-&gt;1244869566</title>
<path fill="none" stroke="black" d="M1772.14,-700.45C1776.83,-652.09 1776.14,-580.44 1741.93,-530.52 1666.49,-420.44 1598.64,-442.63 1473.93,-395.13 1429.55,-378.22 1378.33,-364.3 1336.59,-354.3"/>
<polygon fill="black" stroke="black" points="1337.64,-350.96 1327.11,-352.07 1336.04,-357.77 1337.64,-350.96"/>
<text text-anchor="middle" x="1787.85" y="-534.72" font-family="Times,serif" font-size="14.00">Weight: 0.38</text>
</g>
<!-- 2084116799&#45;&gt;330624590 -->
<g id="edge33" class="edge">
<title>2084116799-&gt;330624590</title>
<path fill="none" stroke="black" d="M1762.24,-700.38C1758.17,-658.79 1746.14,-601.8 1711.93,-565.32 1695.27,-547.55 1681.23,-559.55 1660.17,-547.32 1650.36,-541.62 1650.73,-536.24 1640.93,-530.52 1620.17,-518.4 1612.14,-521.71 1589.93,-512.52 1533.96,-489.36 1402.24,-411.53 1343.93,-395.13 1269.09,-374.08 1246.16,-392.39 1169.93,-377.13 1150.33,-373.2 1129.48,-367.64 1110.21,-361.89"/>
<polygon fill="black" stroke="black" points="1111.41,-358.6 1100.83,-359.03 1109.37,-365.3 1111.41,-358.6"/>
<text text-anchor="middle" x="1699.05" y="-534.72" font-family="Times,serif" font-size="14.00">Weight: -0.39</text>
</g>
<!-- 2084116799&#45;&gt;1331013732 -->
<g id="edge37" class="edge">
<title>2084116799-&gt;1331013732</title>
<path fill="none" stroke="black" d="M1589.44,-709.79C1486.49,-683.91 1374.3,-654.7 1364.17,-647.91 1326,-622.3 1342.63,-586.69 1301.93,-565.32 1259.79,-543.19 920.55,-556.92 873.93,-547.32 829.2,-538.11 781.28,-520.04 743.9,-503.93"/>
<polygon fill="black" stroke="black" points="745.6,-500.85 735.03,-500.06 742.79,-507.27 745.6,-500.85"/>
<text text-anchor="middle" x="1403.05" y="-602.41" font-family="Times,serif" font-size="14.00">Weight: -0.24</text>
</g>
<!-- 2084116799&#45;&gt;741268455 -->
<g id="edge42" class="edge">
<title>2084116799-&gt;741268455</title>
<path fill="none" stroke="black" d="M1579.18,-711.23C1542.16,-696.12 1506.04,-675.64 1477.83,-647.91 1449.77,-620.32 1477.77,-588.44 1445.93,-565.32 1415.77,-543.42 1147.15,-556.11 1110.93,-547.32 1090.51,-542.36 1046.65,-522.5 1009.01,-504.45"/>
<polygon fill="black" stroke="black" points="1010.98,-501.52 1000.45,-500.33 1007.94,-507.82 1010.98,-501.52"/>
<text text-anchor="middle" x="1514.38" y="-602.41" font-family="Times,serif" font-size="14.00">Weight: 0.37</text>
</g>
<!-- 1046246792 -->
<g id="node14" class="node">
<title>1046246792</title>
<ellipse fill="none" stroke="black" cx="1670.93" cy="-53.17" rx="308.84" ry="53.17"/>
<text text-anchor="middle" x="1670.93" y="-74.17" font-family="Times,serif" font-size="14.00">MotorNeuron</text>
<text text-anchor="middle" x="1670.93" y="-57.37" font-family="Times,serif" font-size="14.00">ID: 1046246792</text>
<text text-anchor="middle" x="1670.93" y="-40.57" font-family="Times,serif" font-size="14.00">Activation: 0.37</text>
<text text-anchor="middle" x="1670.93" y="-23.77" font-family="Times,serif" font-size="14.00">Action: com.michibaum.evolutionsimulation.brain.FoodAction@3ee68eb2</text>
</g>
<!-- 2084116799&#45;&gt;1046246792 -->
<g id="edge53" class="edge">
<title>2084116799-&gt;1046246792</title>
<path fill="none" stroke="black" d="M2013.75,-723C2137.14,-701 2259.93,-664.76 2259.93,-607.61 2259.93,-607.61 2259.93,-607.61 2259.93,-199.44 2259.93,-131.95 2112.29,-95.63 1964.85,-76.18"/>
<polygon fill="black" stroke="black" points="1965.65,-72.75 1955.29,-74.94 1964.76,-79.7 1965.65,-72.75"/>
<text text-anchor="middle" x="2296.48" y="-399.33" font-family="Times,serif" font-size="14.00">Weight: 0.49</text>
</g>
<!-- 588054843 -->
<g id="node3" class="node">
<title>588054843</title>
<ellipse fill="none" stroke="black" cx="1131.93" cy="-753.88" rx="308.3" ry="53.17"/>
<text text-anchor="middle" x="1131.93" y="-774.88" font-family="Times,serif" font-size="14.00">SensoryNeuron</text>
<text text-anchor="middle" x="1131.93" y="-758.08" font-family="Times,serif" font-size="14.00">ID: 588054843</text>
<text text-anchor="middle" x="1131.93" y="-741.28" font-family="Times,serif" font-size="14.00">Activation: 0.00</text>
<text text-anchor="middle" x="1131.93" y="-724.48" font-family="Times,serif" font-size="14.00">Sense: com.michibaum.evolutionsimulation.brain.VisionSense@2954c429</text>
</g>
<!-- 588054843&#45;&gt;1568977032 -->
<g id="edge8" class="edge">
<title>588054843-&gt;1568977032</title>
<path fill="none" stroke="black" d="M1235.42,-703.43C1270.66,-688.76 1310.79,-674.37 1348.93,-665.91 1384.24,-658.08 1649.07,-674.18 1673.93,-647.91 1699.16,-621.25 1697.7,-593.29 1673.93,-565.32 1641.82,-527.54 1595.94,-585.1 1563.83,-547.32 1559,-541.63 1558.88,-536.11 1563.83,-530.52 1585.97,-505.55 1681.01,-522.26 1712.93,-512.52 1806.96,-483.83 1822.83,-457.52 1909.93,-411.93 1935.05,-398.78 1962.58,-384.08 1986.52,-371.19"/>
<polygon fill="black" stroke="black" points="1988.07,-374.34 1995.22,-366.51 1984.75,-368.17 1988.07,-374.34"/>
<text text-anchor="middle" x="1600.38" y="-534.72" font-family="Times,serif" font-size="14.00">Weight: 0.44</text>
</g>
<!-- 588054843&#45;&gt;1774238438 -->
<g id="edge11" class="edge">
<title>588054843-&gt;1774238438</title>
<path fill="none" stroke="black" d="M1092.08,-700.84C1088.43,-694.9 1085.03,-688.79 1082.17,-682.71 1078.65,-675.23 1075.66,-667.04 1073.14,-658.9"/>
<polygon fill="black" stroke="black" points="1076.53,-658.02 1070.41,-649.37 1069.8,-659.94 1076.53,-658.02"/>
<text text-anchor="middle" x="1121.05" y="-670.11" font-family="Times,serif" font-size="14.00">Weight: -0.25</text>
</g>
<!-- 588054843&#45;&gt;1588609461 -->
<g id="edge17" class="edge">
<title>588054843-&gt;1588609461</title>
<path fill="none" stroke="black" d="M1156.79,-700.42C1181.01,-649.32 1217.55,-572.21 1241.33,-522.03"/>
<polygon fill="black" stroke="black" points="1244.43,-523.65 1245.55,-513.12 1238.11,-520.66 1244.43,-523.65"/>
<text text-anchor="middle" x="1259.11" y="-602.41" font-family="Times,serif" font-size="14.00">Weight: -0.18</text>
</g>
<!-- 588054843&#45;&gt;1244869566 -->
<g id="edge28" class="edge">
<title>588054843-&gt;1244869566</title>
<path fill="none" stroke="black" d="M1236.34,-703.62C1260.38,-688.44 1284.09,-669.84 1301.93,-647.91 1326.58,-617.62 1308.37,-596.47 1331.93,-565.32 1340.19,-554.4 1350.69,-559.5 1356.93,-547.32 1387.88,-486.9 1381.18,-451.88 1343.93,-395.13 1337.77,-385.75 1329.53,-377.54 1320.53,-370.47"/>
<polygon fill="black" stroke="black" points="1322.7,-367.72 1312.55,-364.67 1318.58,-373.38 1322.7,-367.72"/>
<text text-anchor="middle" x="1403.42" y="-534.72" font-family="Times,serif" font-size="14.00">Weight: -0.14</text>
</g>
<!-- 588054843&#45;&gt;1331013732 -->
<g id="edge38" class="edge">
<title>588054843-&gt;1331013732</title>
<path fill="none" stroke="black" d="M1072.92,-701.22C1053.99,-687.4 1032.15,-674.06 1009.93,-665.91 919.86,-632.89 879.82,-692.42 794.83,-647.91 788.42,-644.55 715.79,-553.44 711.93,-547.32 706.97,-539.45 702.28,-530.76 698.04,-522.17"/>
<polygon fill="black" stroke="black" points="701.21,-520.69 693.75,-513.17 694.89,-523.7 701.21,-520.69"/>
<text text-anchor="middle" x="831.38" y="-602.41" font-family="Times,serif" font-size="14.00">Weight: 0.23</text>
</g>
<!-- 1847745588&#45;&gt;1847745588 -->
<g id="edge2" class="edge">
<title>1847745588-&gt;1847745588</title>
<path fill="none" stroke="black" d="M1965.61,-212.24C1977.92,-210.59 1986.41,-206.66 1986.41,-200.44 1986.41,-196.37 1982.76,-193.27 1976.76,-191.16"/>
<polygon fill="black" stroke="black" points="1977.61,-187.76 1967.09,-188.98 1976.08,-194.59 1977.61,-187.76"/>
<text text-anchor="middle" x="2025.29" y="-196.24" font-family="Times,serif" font-size="14.00">Weight: -0.38</text>
</g>
<!-- 1847745588&#45;&gt;1568977032 -->
<g id="edge9" class="edge">
<title>1847745588-&gt;1568977032</title>
<path fill="none" stroke="black" d="M1900.03,-241.77C1904.11,-254.09 1910.18,-266.91 1919.17,-276.54 1932.69,-291.01 1941.84,-286.49 1959.93,-294.54 1966.95,-297.66 1974.27,-300.92 1981.57,-304.19"/>
<polygon fill="black" stroke="black" points="1979.91,-307.28 1990.47,-308.16 1982.77,-300.89 1979.91,-307.28"/>
<text text-anchor="middle" x="1958.05" y="-263.94" font-family="Times,serif" font-size="14.00">Weight: -0.39</text>
</g>
<!-- 1847745588&#45;&gt;1046246792 -->
<g id="edge44" class="edge">
<title>1847745588-&gt;1046246792</title>
<path fill="none" stroke="black" d="M1865.94,-161.14C1855.82,-148.25 1843.41,-134.56 1829.93,-124.35 1822.15,-118.46 1813.8,-112.94 1805.15,-107.79"/>
<polygon fill="black" stroke="black" points="1807,-104.81 1796.58,-102.88 1803.52,-110.89 1807,-104.81"/>
<text text-anchor="middle" x="1884.31" y="-128.55" font-family="Times,serif" font-size="14.00">Weight: 1.64</text>
</g>
<!-- 1847745588&#45;&gt;1529869535 -->
<g id="edge54" class="edge">
<title>1847745588-&gt;1529869535</title>
<path fill="none" stroke="black" d="M1837.24,-171.35C1825.53,-166.44 1813.04,-162.01 1800.93,-159.15 1739.87,-144.74 735.36,-112.57 672.93,-106.35 639.59,-103.03 604.54,-98.67 570.11,-93.88"/>
<polygon fill="black" stroke="black" points="570.85,-90.45 560.46,-92.52 569.87,-97.38 570.85,-90.45"/>
<text text-anchor="middle" x="1527.95" y="-128.55" font-family="Times,serif" font-size="14.00">Weight: -10.17</text>
</g>
<!-- 1847745588&#45;&gt;601879107 -->
<g id="edge64" class="edge">
<title>1847745588-&gt;601879107</title>
<path fill="none" stroke="black" d="M1835.96,-172.07C1824.56,-167.24 1812.51,-162.64 1800.93,-159.15 1608.98,-101.26 1552.14,-128.95 1352.93,-106.35 1320.68,-102.69 1286.79,-98.23 1253.42,-93.48"/>
<polygon fill="black" stroke="black" points="1254.02,-90.03 1243.63,-92.07 1253.03,-96.96 1254.02,-90.03"/>
<text text-anchor="middle" x="1767.54" y="-128.55" font-family="Times,serif" font-size="14.00">Weight: 11.80</text>
</g>
<!-- 1568977032&#45;&gt;1847745588 -->
<g id="edge5" class="edge">
<title>1568977032-&gt;1847745588</title>
<path fill="none" stroke="black" d="M2029.59,-295.72C2021.79,-283.19 2012.06,-269.94 2000.93,-259.74 1989.41,-249.18 1975.62,-239.91 1961.79,-232.05"/>
<polygon fill="black" stroke="black" points="1963.53,-229.01 1953.07,-227.3 1960.18,-235.16 1963.53,-229.01"/>
<text text-anchor="middle" x="2052.34" y="-263.94" font-family="Times,serif" font-size="14.00">Weight: 0.48</text>
</g>
<!-- 1568977032&#45;&gt;1046246792 -->
<g id="edge45" class="edge">
<title>1568977032-&gt;1046246792</title>
<path fill="none" stroke="black" d="M2079.74,-297.59C2084.49,-290.8 2089.1,-283.62 2092.93,-276.54 2125.27,-216.85 2149.95,-176.03 2105.93,-124.35 2085.46,-100.31 2032.97,-84.48 1971.23,-74.06"/>
<polygon fill="black" stroke="black" points="1971.94,-70.63 1961.51,-72.48 1970.82,-77.54 1971.94,-70.63"/>
<text text-anchor="middle" x="2166.25" y="-196.24" font-family="Times,serif" font-size="14.00">Weight: 1.20</text>
</g>
<!-- 1568977032&#45;&gt;601879107 -->
<g id="edge65" class="edge">
<title>1568977032-&gt;601879107</title>
<path fill="none" stroke="black" d="M1993.48,-307.52C1982.5,-302.79 1970.97,-298.22 1959.93,-294.54 1859.16,-260.94 1816.83,-298.17 1726.83,-241.74 1687.05,-216.79 1701.47,-182.85 1660.93,-159.15 1651.91,-153.88 1440.5,-120.18 1261.58,-92.37"/>
<polygon fill="black" stroke="black" points="1262.3,-88.94 1251.88,-90.86 1261.22,-95.86 1262.3,-88.94"/>
<text text-anchor="middle" x="1766.88" y="-196.24" font-family="Times,serif" font-size="14.00">Weight: 12.37</text>
</g>
<!-- 1774238438&#45;&gt;1588609461 -->
<g id="edge19" class="edge">
<title>1774238438-&gt;1588609461</title>
<path fill="none" stroke="black" d="M1092.5,-568.71C1104.71,-555.5 1119.5,-541.25 1134.83,-530.52 1152.03,-518.48 1172.1,-508.03 1191.27,-499.42"/>
<polygon fill="black" stroke="black" points="1192.64,-502.64 1200.41,-495.44 1189.84,-496.22 1192.64,-502.64"/>
<text text-anchor="middle" x="1171.38" y="-534.72" font-family="Times,serif" font-size="14.00">Weight: 0.36</text>
</g>
<!-- 1774238438&#45;&gt;1331013732 -->
<g id="edge39" class="edge">
<title>1774238438-&gt;1331013732</title>
<path fill="none" stroke="black" d="M1007.32,-577.59C995.88,-572.74 983.71,-568.31 971.93,-565.32 921.15,-552.42 783.14,-571.84 736.83,-547.32 724.74,-540.92 714.25,-530.91 705.57,-520.26"/>
<polygon fill="black" stroke="black" points="708.47,-518.28 699.63,-512.44 702.89,-522.52 708.47,-518.28"/>
<text text-anchor="middle" x="773.38" y="-534.72" font-family="Times,serif" font-size="14.00">Weight: 0.42</text>
</g>
<!-- 1774238438&#45;&gt;741268455 -->
<g id="edge43" class="edge">
<title>1774238438-&gt;741268455</title>
<path fill="none" stroke="black" d="M1006.03,-578.3C994.9,-573.52 983.18,-568.93 971.93,-565.32 933.6,-553.02 908.65,-578.48 883.17,-547.32 873.69,-535.72 878.22,-523.08 888.14,-511.52"/>
<polygon fill="black" stroke="black" points="890.62,-514 895.13,-504.42 885.63,-509.09 890.62,-514"/>
<text text-anchor="middle" x="922.05" y="-534.72" font-family="Times,serif" font-size="14.00">Weight: -0.40</text>
</g>
<!-- 1774238438&#45;&gt;1046246792 -->
<g id="edge46" class="edge">
<title>1774238438-&gt;1046246792</title>
<path fill="none" stroke="black" d="M1122.01,-580.76C1162.01,-564.87 1216.02,-544.66 1264.93,-530.52 1302.03,-519.79 1312.86,-523.34 1349.93,-512.52 1450.19,-483.26 1467.88,-452.16 1569.93,-429.93 1625.87,-417.74 1775.97,-438.01 1826.93,-411.93 1894.41,-377.4 1841.97,-303.42 1903.93,-259.74 1934.8,-237.98 2047.68,-269.82 2072.93,-241.74 2140.28,-166.83 2033.86,-119.5 1913.66,-91.13"/>
<polygon fill="black" stroke="black" points="1914.75,-87.79 1904.22,-88.95 1913.17,-94.61 1914.75,-87.79"/>
<text text-anchor="middle" x="1915.02" y="-331.63" font-family="Times,serif" font-size="14.00">Weight: -0.30</text>
</g>
<!-- 1774238438&#45;&gt;1529869535 -->
<g id="edge55" class="edge">
<title>1774238438-&gt;1529869535</title>
<path fill="none" stroke="black" d="M1009.96,-576.05C1000.55,-571.78 990.63,-567.94 980.93,-565.32 865.27,-534.03 829.32,-571.33 711.93,-547.32 689.79,-542.79 685.58,-537 663.93,-530.52 632.33,-521.06 622.17,-525.71 591.93,-512.52 490.91,-468.46 448.94,-466.3 384.17,-377.13 361.83,-346.37 379.06,-328.47 361.93,-294.54 348.42,-267.77 329.82,-270.05 319.93,-241.74 302.73,-192.48 315.52,-176.34 319.93,-124.35 320.11,-122.18 320.33,-119.97 320.57,-117.75"/>
<polygon fill="black" stroke="black" points="324.02,-118.41 321.79,-108.05 317.07,-117.54 324.02,-118.41"/>
<text text-anchor="middle" x="426.55" y="-331.63" font-family="Times,serif" font-size="14.00">Weight: -12.46</text>
</g>
<!-- 1774238438&#45;&gt;601879107 -->
<g id="edge66" class="edge">
<title>1774238438-&gt;601879107</title>
<path fill="none" stroke="black" d="M1008.84,-576.45C999.72,-572.24 990.19,-568.33 980.93,-565.32 935.07,-550.42 916.53,-569.92 873.93,-547.32 810.23,-513.52 821.5,-470.56 761.93,-429.93 744.48,-418.02 729.71,-429.47 717.93,-411.93 670.85,-341.8 501.25,-482.58 849.93,-259.74 870.18,-246.79 884.04,-258.84 900.93,-241.74 928.17,-214.16 910.32,-193.15 928.93,-159.15 937.21,-144.03 947.69,-128.91 958.43,-115.03"/>
<polygon fill="black" stroke="black" points="961.09,-117.3 964.56,-107.29 955.61,-112.96 961.09,-117.3"/>
<text text-anchor="middle" x="833.7" y="-331.63" font-family="Times,serif" font-size="14.00">Weight: 12.10</text>
</g>
<!-- 571435580&#45;&gt;1588609461 -->
<g id="edge21" class="edge">
<title>571435580-&gt;1588609461</title>
<path fill="none" stroke="black" d="M559.46,-571.99C581.76,-556.36 610.33,-539.31 638.83,-530.52 721.76,-504.95 942.65,-521.84 1028.93,-512.52 1080.27,-506.97 1137.35,-497.32 1182.52,-488.85"/>
<polygon fill="black" stroke="black" points="1183.07,-492.31 1192.24,-487.01 1181.77,-485.43 1183.07,-492.31"/>
<text text-anchor="middle" x="675.38" y="-534.72" font-family="Times,serif" font-size="14.00">Weight: 0.46</text>
</g>
<!-- 571435580&#45;&gt;1331013732 -->
<g id="edge40" class="edge">
<title>571435580-&gt;1331013732</title>
<path fill="none" stroke="black" d="M473.97,-572.23C462.13,-559.04 455,-543.87 465.17,-530.52 480.94,-509.82 540.09,-494.62 591.88,-484.94"/>
<polygon fill="black" stroke="black" points="592.43,-488.4 601.65,-483.17 591.18,-481.51 592.43,-488.4"/>
<text text-anchor="middle" x="504.05" y="-534.72" font-family="Times,serif" font-size="14.00">Weight: -0.12</text>
</g>
<!-- 571435580&#45;&gt;1046246792 -->
<g id="edge47" class="edge">
<title>571435580-&gt;1046246792</title>
<path fill="none" stroke="black" d="M473.2,-572.62C466.17,-565.13 459.9,-556.61 455.93,-547.32 453,-540.45 454.15,-537.77 455.93,-530.52 489.46,-393.87 489.81,-313.27 619.93,-259.74 670.01,-239.14 815.42,-267.72 862.93,-241.74 903.2,-219.72 885.99,-183.45 924.93,-159.15 1006.23,-108.42 1257.76,-117.61 1352.93,-106.35 1383.25,-102.76 1415.09,-98.33 1446.42,-93.58"/>
<polygon fill="black" stroke="black" points="1446.63,-97.09 1455.99,-92.12 1445.57,-90.17 1446.63,-97.09"/>
<text text-anchor="middle" x="595.01" y="-331.63" font-family="Times,serif" font-size="14.00">Weight: -0.18</text>
</g>
<!-- 571435580&#45;&gt;1529869535 -->
<g id="edge56" class="edge">
<title>571435580-&gt;1529869535</title>
<path fill="none" stroke="black" d="M464.94,-576.11C455.53,-571.84 445.62,-567.98 435.93,-565.32 384.58,-551.19 240.55,-577.88 196.93,-547.32 128.97,-499.71 137.62,-458.25 120.17,-377.13 97.92,-273.68 145.73,-238.32 215.93,-159.15 229.89,-143.4 246.03,-127.57 261.75,-113.14"/>
<polygon fill="black" stroke="black" points="263.74,-116.07 268.8,-106.76 259.04,-110.88 263.74,-116.07"/>
<text text-anchor="middle" x="162.55" y="-331.63" font-family="Times,serif" font-size="14.00">Weight: -12.55</text>
</g>
<!-- 571435580&#45;&gt;601879107 -->
<g id="edge67" class="edge">
<title>571435580-&gt;601879107</title>
<path fill="none" stroke="black" d="M464.36,-576.39C455.1,-572.14 445.39,-568.23 435.93,-565.32 407.42,-556.56 323.9,-568.53 302.93,-547.32 263.3,-507.24 244.49,-336.76 281.83,-294.54 325.17,-245.53 378.64,-319.56 427.93,-276.54 468.58,-241.05 419.46,-195.94 458.93,-159.15 474.07,-145.04 621.6,-128.21 641.93,-124.35 689.58,-115.31 740.68,-105.64 789.25,-96.45"/>
<polygon fill="black" stroke="black" points="789.89,-99.89 799.06,-94.59 788.58,-93.01 789.89,-99.89"/>
<text text-anchor="middle" x="321.88" y="-331.63" font-family="Times,serif" font-size="14.00">Weight: 11.57</text>
</g>
<!-- 1588609461&#45;&gt;1847745588 -->
<g id="edge4" class="edge">
<title>1588609461-&gt;1847745588</title>
<path fill="none" stroke="black" d="M1337.93,-458.03C1393.67,-449.1 1472.46,-437.3 1541.93,-429.93 1571.61,-426.78 1789.55,-433.73 1809.93,-411.93 1833.07,-387.18 1779.61,-379.6 1778.17,-377.13 1759.69,-345.41 1762.45,-327.71 1778.17,-294.54 1789.21,-271.24 1809.25,-251.83 1829.48,-236.87"/>
<polygon fill="black" stroke="black" points="1831.37,-239.82 1837.51,-231.19 1827.33,-234.1 1831.37,-239.82"/>
<text text-anchor="middle" x="1817.05" y="-331.63" font-family="Times,serif" font-size="14.00">Weight: -0.20</text>
</g>
<!-- 1588609461&#45;&gt;642296347 -->
<g id="edge24" class="edge">
<title>1588609461-&gt;642296347</title>
<path fill="none" stroke="black" d="M1338.69,-459.4C1394.49,-451.23 1473.02,-439.79 1541.93,-429.93 1570.37,-425.86 1651.09,-433.61 1669.93,-411.93 1693.63,-384.66 1655.86,-365.5 1613.88,-353.37"/>
<polygon fill="black" stroke="black" points="1614.89,-350.01 1604.32,-350.75 1613.04,-356.77 1614.89,-350.01"/>
<text text-anchor="middle" x="1716.08" y="-399.33" font-family="Times,serif" font-size="14.00">Weight: -0.19</text>
</g>
<!-- 1588609461&#45;&gt;1244869566 -->
<g id="edge29" class="edge">
<title>1588609461-&gt;1244869566</title>
<path fill="none" stroke="black" d="M1263.14,-429.67C1262.54,-418.47 1261.8,-406.32 1260.93,-395.13 1260.76,-392.96 1260.58,-390.75 1260.39,-388.51"/>
<polygon fill="black" stroke="black" points="1263.89,-388.41 1259.49,-378.77 1256.92,-389.05 1263.89,-388.41"/>
<text text-anchor="middle" x="1300.97" y="-399.33" font-family="Times,serif" font-size="14.00">Weight: -0.46</text>
</g>
<!-- 1588609461&#45;&gt;330624590 -->
<g id="edge34" class="edge">
<title>1588609461-&gt;330624590</title>
<path fill="none" stroke="black" d="M1192.2,-457.81C1157.73,-449.22 1117.49,-435.03 1086.83,-411.93 1077.3,-404.75 1068.95,-395.24 1061.92,-385.4"/>
<polygon fill="black" stroke="black" points="1064.9,-383.57 1056.43,-377.2 1059.08,-387.46 1064.9,-383.57"/>
<text text-anchor="middle" x="1123.38" y="-399.33" font-family="Times,serif" font-size="14.00">Weight: 0.33</text>
</g>
<!-- 1588609461&#45;&gt;1046246792 -->
<g id="edge48" class="edge">
<title>1588609461-&gt;1046246792</title>
<path fill="none" stroke="black" d="M1337.96,-458.34C1393.72,-449.58 1472.52,-437.85 1541.93,-429.93 1565.97,-427.19 1742.55,-429.73 1758.93,-411.93 1763.99,-406.44 1760.59,-402.41 1758.93,-395.13 1742.06,-321.34 1704.54,-314.85 1684.93,-241.74 1674.12,-201.44 1670.62,-154.64 1669.82,-117.87"/>
<polygon fill="black" stroke="black" points="1673.32,-118.26 1669.67,-108.31 1666.32,-118.36 1673.32,-118.26"/>
<text text-anchor="middle" x="1736.26" y="-263.94" font-family="Times,serif" font-size="14.00">Weight: -2.09</text>
</g>
<!-- 1588609461&#45;&gt;1529869535 -->
<g id="edge57" class="edge">
<title>1588609461-&gt;1529869535</title>
<path fill="none" stroke="black" d="M1193.45,-455.89C1146.8,-447.06 1084.48,-436.26 1028.93,-429.93 994.54,-426.01 748.64,-427.89 717.93,-411.93 658.87,-381.23 682.91,-327.24 624.93,-294.54 569.61,-263.34 539.18,-306.48 483.17,-276.54 465.1,-266.88 465.24,-258.12 452.93,-241.74 422.6,-201.35 391.78,-153.46 368.84,-116.18"/>
<polygon fill="black" stroke="black" points="371.88,-114.45 363.68,-107.75 365.91,-118.1 371.88,-114.45"/>
<text text-anchor="middle" x="525.55" y="-263.94" font-family="Times,serif" font-size="14.00">Weight: -15.20</text>
</g>
<!-- 1588609461&#45;&gt;601879107 -->
<g id="edge68" class="edge">
<title>1588609461-&gt;601879107</title>
<path fill="none" stroke="black" d="M1341.68,-469.5C1412.72,-465.5 1503.27,-449.94 1473.93,-395.13 1467.13,-382.41 1458.2,-386.12 1446.93,-377.13 1396.14,-336.61 1379.23,-328.96 1340.83,-276.54 1306.69,-229.92 1327.25,-198.5 1284.93,-159.15 1259.93,-135.9 1229.22,-117.62 1197.54,-103.3"/>
<polygon fill="black" stroke="black" points="1199.18,-100.19 1188.62,-99.39 1196.37,-106.61 1199.18,-100.19"/>
<text text-anchor="middle" x="1380.88" y="-263.94" font-family="Times,serif" font-size="14.00">Weight: 10.77</text>
</g>
<!-- 642296347&#45;&gt;1588609461 -->
<g id="edge18" class="edge">
<title>642296347-&gt;1588609461</title>
<path fill="none" stroke="black" d="M1574.62,-370.37C1586.59,-383.73 1593.73,-398.97 1582.93,-411.93 1568.09,-429.74 1440,-448.83 1350.99,-460.14"/>
<polygon fill="black" stroke="black" points="1350.78,-456.64 1341.3,-461.36 1351.66,-463.59 1350.78,-456.64"/>
<text text-anchor="middle" x="1627.11" y="-399.33" font-family="Times,serif" font-size="14.00">Weight: -0.38</text>
</g>
<!-- 642296347&#45;&gt;1046246792 -->
<g id="edge49" class="edge">
<title>642296347-&gt;1046246792</title>
<path fill="none" stroke="black" d="M1539.03,-294.33C1546.59,-257.52 1560.71,-202.51 1583.83,-159.15 1592.02,-143.81 1602.67,-128.63 1613.7,-114.79"/>
<polygon fill="black" stroke="black" points="1616.4,-117.02 1620.02,-107.07 1610.98,-112.59 1616.4,-117.02"/>
<text text-anchor="middle" x="1620.38" y="-196.24" font-family="Times,serif" font-size="14.00">Weight: 0.57</text>
</g>
<!-- 642296347&#45;&gt;1529869535 -->
<g id="edge58" class="edge">
<title>642296347-&gt;1529869535</title>
<path fill="none" stroke="black" d="M1462.99,-318.17C1426.59,-309.93 1381.05,-300.5 1339.93,-294.54 1241.96,-280.34 1215.92,-290.56 1117.93,-276.54 1098.98,-273.83 967.51,-247.24 949.17,-241.74 854.2,-213.26 836.21,-189.86 741.93,-159.15 674.43,-137.16 599.48,-116.81 532.31,-100"/>
<polygon fill="black" stroke="black" points="533.19,-96.62 522.64,-97.6 531.5,-103.41 533.19,-96.62"/>
<text text-anchor="middle" x="991.55" y="-196.24" font-family="Times,serif" font-size="14.00">Weight: -11.94</text>
</g>
<!-- 642296347&#45;&gt;601879107 -->
<g id="edge69" class="edge">
<title>642296347-&gt;601879107</title>
<path fill="none" stroke="black" d="M1491.28,-300.62C1472.19,-286.1 1448.49,-270.16 1424.93,-259.74 1391.56,-244.98 1371.2,-266.96 1344.83,-241.74 1305.77,-204.36 1351.84,-161.89 1312.93,-124.35 1301.5,-113.32 1279.21,-103.62 1251.73,-95.24"/>
<polygon fill="black" stroke="black" points="1252.99,-91.97 1242.41,-92.52 1251.03,-98.69 1252.99,-91.97"/>
<text text-anchor="middle" x="1384.88" y="-196.24" font-family="Times,serif" font-size="14.00">Weight: 12.48</text>
</g>
<!-- 1244869566&#45;&gt;1847745588 -->
<g id="edge3" class="edge">
<title>1244869566-&gt;1847745588</title>
<path fill="none" stroke="black" d="M1322.27,-315.96C1386.81,-298.62 1487.22,-273.57 1575.83,-259.74 1675,-244.26 1703.65,-266.41 1800.93,-241.74 1809.29,-239.62 1817.85,-236.79 1826.22,-233.62"/>
<polygon fill="black" stroke="black" points="1827.29,-236.96 1835.27,-230 1824.69,-230.46 1827.29,-236.96"/>
<text text-anchor="middle" x="1612.38" y="-263.94" font-family="Times,serif" font-size="14.00">Weight: 0.18</text>
</g>
<!-- 1244869566&#45;&gt;1046246792 -->
<g id="edge50" class="edge">
<title>1244869566-&gt;1046246792</title>
<path fill="none" stroke="black" d="M1281.75,-296.96C1293.46,-283.15 1308.31,-268.73 1324.93,-259.74 1366.19,-237.42 1390.56,-268.72 1428.93,-241.74 1463.46,-217.46 1445.65,-188.65 1475.83,-159.15 1495.87,-139.57 1520.29,-122.63 1544.99,-108.42"/>
<polygon fill="black" stroke="black" points="1546.5,-111.59 1553.51,-103.65 1543.08,-105.48 1546.5,-111.59"/>
<text text-anchor="middle" x="1512.38" y="-196.24" font-family="Times,serif" font-size="14.00">Weight: 2.20</text>
</g>
<!-- 1244869566&#45;&gt;1529869535 -->
<g id="edge59" class="edge">
<title>1244869566-&gt;1529869535</title>
<path fill="none" stroke="black" d="M1191.26,-312.39C1169.25,-305.51 1144.25,-298.68 1120.93,-294.54 988.54,-271.02 952.07,-295.35 818.93,-276.54 801.48,-274.07 677.77,-252.95 664.17,-241.74 633.24,-216.25 658.38,-185.22 627.93,-159.15 604.18,-138.82 589.69,-150.73 559.93,-141.15 528.41,-131 494.88,-118.94 463.51,-107.08"/>
<polygon fill="black" stroke="black" points="464.97,-103.89 454.38,-103.61 462.48,-110.43 464.97,-103.89"/>
<text text-anchor="middle" x="703.05" y="-196.24" font-family="Times,serif" font-size="14.00">Weight: -7.40</text>
</g>
<!-- 1244869566&#45;&gt;601879107 -->
<g id="edge70" class="edge">
<title>1244869566-&gt;601879107</title>
<path fill="none" stroke="black" d="M1235.44,-295.8C1229.04,-283.94 1221.59,-271.06 1213.93,-259.74 1181.45,-211.73 1171.15,-200.89 1130.93,-159.15 1116.03,-143.68 1099.19,-127.85 1083.01,-113.32"/>
<polygon fill="black" stroke="black" points="1085.54,-110.89 1075.75,-106.86 1080.89,-116.12 1085.54,-110.89"/>
<text text-anchor="middle" x="1241.14" y="-196.24" font-family="Times,serif" font-size="14.00">Weight: 11.47</text>
</g>
<!-- 330624590&#45;&gt;1588609461 -->
<g id="edge20" class="edge">
<title>330624590-&gt;1588609461</title>
<path fill="none" stroke="black" d="M996.88,-371.44C986.57,-384.66 980.79,-399.52 990.83,-411.93 1002.91,-426.84 1104.17,-445.51 1180.13,-457.64"/>
<polygon fill="black" stroke="black" points="1179.22,-461.04 1189.64,-459.15 1180.31,-454.13 1179.22,-461.04"/>
<text text-anchor="middle" x="1027.38" y="-399.33" font-family="Times,serif" font-size="14.00">Weight: 0.25</text>
</g>
<!-- 330624590&#45;&gt;1529869535 -->
<g id="edge60" class="edge">
<title>330624590-&gt;1529869535</title>
<path fill="none" stroke="black" d="M965.68,-320.18C922.85,-311.68 866.92,-301.34 816.93,-294.54 694.15,-277.84 644.66,-312.84 543.17,-241.74 481.48,-198.52 477.74,-173.81 420.93,-124.35 416.48,-120.47 411.85,-116.54 407.14,-112.62"/>
<polygon fill="black" stroke="black" points="409.72,-110.21 399.78,-106.55 405.27,-115.61 409.72,-110.21"/>
<text text-anchor="middle" x="585.55" y="-196.24" font-family="Times,serif" font-size="14.00">Weight: -13.56</text>
</g>
<!-- 330624590&#45;&gt;601879107 -->
<g id="edge71" class="edge">
<title>330624590-&gt;601879107</title>
<path fill="none" stroke="black" d="M1035.52,-294.06C1036.07,-258.03 1039.12,-204.34 1050.83,-159.15 1053.04,-150.66 1057.09,-149.73 1058.93,-141.15 1060.5,-133.85 1061.07,-131.5 1058.93,-124.35 1058.16,-121.76 1057.25,-119.17 1056.24,-116.61"/>
<polygon fill="black" stroke="black" points="1059.48,-115.26 1052.17,-107.59 1053.1,-118.14 1059.48,-115.26"/>
<text text-anchor="middle" x="1090.88" y="-196.24" font-family="Times,serif" font-size="14.00">Weight: 12.55</text>
</g>
<!-- 1331013732&#45;&gt;1244869566 -->
<g id="edge31" class="edge">
<title>1331013732-&gt;1244869566</title>
<path fill="none" stroke="black" d="M737.59,-445.82C782.77,-428.73 846.36,-406.91 904.17,-395.13 998.89,-375.83 1025.96,-395.15 1120.93,-377.13 1140.47,-373.42 1161.23,-367.96 1180.41,-362.25"/>
<polygon fill="black" stroke="black" points="1181.2,-365.67 1189.75,-359.41 1179.16,-358.97 1181.2,-365.67"/>
<text text-anchor="middle" x="943.05" y="-399.33" font-family="Times,serif" font-size="14.00">Weight: -0.29</text>
</g>
<!-- 1331013732&#45;&gt;330624590 -->
<g id="edge35" class="edge">
<title>1331013732-&gt;330624590</title>
<path fill="none" stroke="black" d="M702.52,-431.87C713.62,-418.17 727.76,-403.95 743.83,-395.13 787.69,-371.07 805.81,-386.57 854.93,-377.13 888.16,-370.74 924.61,-362.81 956.04,-355.67"/>
<polygon fill="black" stroke="black" points="956.49,-359.16 965.46,-353.52 954.93,-352.34 956.49,-359.16"/>
<text text-anchor="middle" x="780.38" y="-399.33" font-family="Times,serif" font-size="14.00">Weight: 0.14</text>
</g>
<!-- 1331013732&#45;&gt;1046246792 -->
<g id="edge51" class="edge">
<title>1331013732-&gt;1046246792</title>
<path fill="none" stroke="black" d="M693.67,-430.64C701.1,-417.46 711.12,-403.92 723.93,-395.13 758.64,-371.31 784.16,-403.56 816.93,-377.13 861.1,-341.5 824.69,-297.37 867.17,-259.74 888.57,-240.78 903.51,-254.82 928.93,-241.74 981.73,-214.58 979.6,-183.08 1033.93,-159.15 1035.14,-158.62 1256.44,-122.21 1437.83,-92.42"/>
<polygon fill="black" stroke="black" points="1438.38,-95.88 1447.68,-90.8 1437.24,-88.97 1438.38,-95.88"/>
<text text-anchor="middle" x="906.05" y="-263.94" font-family="Times,serif" font-size="14.00">Weight: -0.92</text>
</g>
<!-- 1331013732&#45;&gt;1529869535 -->
<g id="edge61" class="edge">
<title>1331013732-&gt;1529869535</title>
<path fill="none" stroke="black" d="M601.39,-464.37C490.7,-454.13 292.51,-428.93 245.93,-377.13 170.18,-292.88 226.64,-224.86 278.93,-124.35 280.42,-121.49 282.02,-118.63 283.71,-115.78"/>
<polygon fill="black" stroke="black" points="286.57,-117.8 288.93,-107.47 280.64,-114.08 286.57,-117.8"/>
<text text-anchor="middle" x="255.81" y="-263.94" font-family="Times,serif" font-size="14.00">Weight: -15.03</text>
</g>
<!-- 1331013732&#45;&gt;601879107 -->
<g id="edge72" class="edge">
<title>1331013732-&gt;601879107</title>
<path fill="none" stroke="black" d="M656.15,-431.04C653.4,-424.77 650.87,-418.26 648.93,-411.93 640.68,-384.94 606.77,-181.56 623.93,-159.15 644.47,-132.33 704.88,-110.81 772.16,-94.4"/>
<polygon fill="black" stroke="black" points="772.62,-97.89 781.53,-92.16 770.99,-91.08 772.62,-97.89"/>
<text text-anchor="middle" x="665.95" y="-263.94" font-family="Times,serif" font-size="14.00">Weight: 12.28</text>
</g>
<!-- 741268455&#45;&gt;642296347 -->
<g id="edge25" class="edge">
<title>741268455-&gt;642296347</title>
<path fill="none" stroke="black" d="M1010.38,-450.89C1039.21,-443.21 1073.5,-435.01 1104.93,-429.93 1210.09,-412.94 1240.15,-435.96 1343.93,-411.93 1385.85,-402.22 1430.66,-384.63 1466.02,-368.91"/>
<polygon fill="black" stroke="black" points="1467.15,-372.24 1474.83,-364.94 1464.27,-365.86 1467.15,-372.24"/>
<text text-anchor="middle" x="1433.69" y="-399.33" font-family="Times,serif" font-size="14.00">Weight: 0.27</text>
</g>
<!-- 741268455&#45;&gt;1244869566 -->
<g id="edge30" class="edge">
<title>741268455-&gt;1244869566</title>
<path fill="none" stroke="black" d="M1012.63,-453.33C1070.76,-438.77 1146.7,-419 1159.93,-411.93 1169.94,-406.58 1170.39,-402.33 1179.17,-395.13 1186.46,-389.15 1194.24,-382.96 1201.94,-376.94"/>
<polygon fill="black" stroke="black" points="1203.96,-379.81 1209.71,-370.91 1199.66,-374.28 1203.96,-379.81"/>
<text text-anchor="middle" x="1218.05" y="-399.33" font-family="Times,serif" font-size="14.00">Weight: -0.31</text>
</g>
<!-- 741268455&#45;&gt;1046246792 -->
<g id="edge52" class="edge">
<title>741268455-&gt;1046246792</title>
<path fill="none" stroke="black" d="M955.78,-429.95C961.59,-416.87 970,-403.57 981.93,-395.13 1032.79,-359.16 1068.89,-411.37 1120.93,-377.13 1156.58,-353.67 1140.76,-325.69 1169.93,-294.54 1198.29,-264.25 1215.48,-268.81 1246.93,-241.74 1284.96,-209 1281.33,-185.68 1323.93,-159.15 1366.02,-132.93 1415.08,-112.91 1462.82,-97.75"/>
<polygon fill="black" stroke="black" points="1463.67,-101.15 1472.18,-94.84 1461.59,-94.46 1463.67,-101.15"/>
<text text-anchor="middle" x="1257.18" y="-263.94" font-family="Times,serif" font-size="14.00">Weight: 0.91</text>
</g>
<!-- 741268455&#45;&gt;1529869535 -->
<g id="edge62" class="edge">
<title>741268455-&gt;1529869535</title>
<path fill="none" stroke="black" d="M874.44,-454.45C840.54,-446.86 799.15,-437.73 761.93,-429.93 654.61,-407.44 609.13,-442.27 520.93,-377.13 486.78,-351.91 507.8,-318.76 472.93,-294.54 434.13,-267.58 401.43,-310.09 368.17,-276.54 327.55,-235.57 321.71,-167.98 324.05,-118.06"/>
<polygon fill="black" stroke="black" points="327.54,-118.44 324.65,-108.24 320.55,-118.02 327.54,-118.44"/>
<text text-anchor="middle" x="410.55" y="-263.94" font-family="Times,serif" font-size="14.00">Weight: -10.96</text>
</g>
<!-- 741268455&#45;&gt;601879107 -->
<g id="edge73" class="edge">
<title>741268455-&gt;601879107</title>
<path fill="none" stroke="black" d="M944.88,-429.69C945.18,-418.49 945.54,-406.34 945.93,-395.13 948.04,-334.94 941.87,-319.14 951.83,-259.74 960.02,-210.97 976.16,-157.47 989.79,-117.28"/>
<polygon fill="black" stroke="black" points="993.04,-118.6 992.98,-108 986.42,-116.32 993.04,-118.6"/>
<text text-anchor="middle" x="991.88" y="-263.94" font-family="Times,serif" font-size="14.00">Weight: 11.90</text>
</g>
</g>
</svg>